<svg width="34" height="31" viewBox="0 0 34 31" fill="none" xmlns="http://www.w3.org/2000/svg">
<path d="M8.6 22.009L18.3 29.809C18.5 29.909 18.7 30.009 18.9 30.009C19 30.009 19.2 30.009 19.3 29.909C19.6 29.709 19.9 29.409 19.9 29.009V1.00902C19.9 0.609017 19.7 0.309017 19.3 0.109017C19 -0.0909831 18.5 0.00901724 18.2 0.209017L8.5 8.00902H5C2.2 8.00902 0 10.209 0 13.009V17.009C0 19.809 2.2 22.009 5 22.009H8.6ZM2 17.009V13.009C2 11.309 3.3 10.009 5 10.009H9C9.2 10.009 9.4 9.90902 9.6 9.80902L18 3.10902V26.909L9.6 20.209C9.4 20.109 9.2 20.009 9 20.009H5C3.3 20.009 2 18.709 2 17.009Z" fill="#CCA33B"/>
<path d="M23.8 18.609C24 18.809 24.3 18.909 24.5 18.909C24.7 18.909 25 18.809 25.2 18.609C26.3 17.509 27 16.009 27 14.409C27 12.809 26.4 11.309 25.2 10.209C24.8 9.80903 24.2 9.80903 23.8 10.209C23.4 10.609 23.4 11.209 23.8 11.609C25.4 13.209 25.4 15.709 23.8 17.309C23.4 17.609 23.4 18.209 23.8 18.609Z" fill="#CCA33B"/>
<path d="M28.8 5.20903C28.4 5.60903 28.4 6.20903 28.8 6.60903C30.9 8.70903 32 11.409 32 14.409C32 17.309 30.9 20.109 28.8 22.209C28.4 22.609 28.4 23.209 28.8 23.609C29 23.809 29.3 23.909 29.5 23.909C29.7 23.909 30 23.809 30.2 23.609C32.7 21.109 34 17.909 34 14.409C34 10.909 32.6 7.70903 30.2 5.20903C29.8 4.80903 29.2 4.80903 28.8 5.20903Z" fill="#CCA33B"/>
</svg>
