<svg width="254" height="49" viewBox="0 0 254 49" fill="none" xmlns="http://www.w3.org/2000/svg">
<path d="M0 46.7545C3.17377 31.5073 6.31483 16.3583 9.45588 1.11107C9.91395 1.11107 10.2739 1.11107 10.6338 1.11107C16.9159 1.11107 23.198 1.11107 29.4801 1.11107C33.4064 1.11107 37.2346 1.56914 40.9319 2.94335C46.1342 4.87379 48.8172 8.66923 49.6679 14.0352C50.7804 21.1353 47.214 31.8672 43.484 36.6443C39.3941 41.8793 34.159 44.7914 27.8114 46.0674C24.9321 46.6236 22.0528 46.7872 19.1408 46.7872C13.1859 46.7872 7.23097 46.7872 1.27605 46.7872C0.850702 46.7872 0.523509 46.7545 0 46.7545ZM19.5989 36.4807C20.8095 36.4152 21.7911 36.3498 22.8054 36.2516C26.11 35.9899 28.4004 34.3866 29.3819 31.1147C29.5128 30.6893 29.6764 30.2967 29.7746 29.8713C30.4617 27.0248 31.1815 24.1455 31.7377 21.2662C32.0322 19.8265 32.1304 18.3214 32.1304 16.8491C32.1304 15.2131 31.476 13.8062 29.9709 12.9227C28.3349 11.9739 26.5681 11.843 24.6376 11.843C22.969 20.0556 21.3003 28.1699 19.5989 36.4807Z" fill="#C10F00"/>
<path d="M58.1748 1.1438C64.1297 1.1438 70.0192 1.1438 75.9741 1.1438C75.9741 1.40555 75.9741 1.60187 75.9414 1.79819C74.1091 10.6324 72.2769 19.4339 70.4446 28.2681C70.281 29.1188 70.0847 29.9695 69.9865 30.8529C69.8883 31.5728 69.8883 32.2926 69.9211 33.0124C70.0519 35.5645 72.2768 36.6442 74.4036 35.2046C75.2543 34.6484 75.8433 33.8304 76.1705 32.9142C76.694 31.4746 77.1847 30.0349 77.4792 28.5299C79.3442 19.6956 81.1765 10.8287 83.0088 1.96178C83.0742 1.70003 83.1397 1.47098 83.2378 1.17651C89.0291 1.17651 94.8532 1.17651 100.743 1.17651C100.481 2.518 100.219 3.79406 99.9574 5.07012C98.3214 12.9882 96.6855 20.939 94.984 28.8571C94.5914 30.6893 94.1006 32.5543 93.4462 34.2885C90.8614 41.3231 85.6918 45.5439 78.5262 47.3762C75.0253 48.2596 71.3934 48.325 67.7943 48.1614C65.5367 48.0306 63.3118 47.8343 61.1196 47.2126C60.8251 47.1472 60.5633 47.049 60.2689 46.9836C55.0992 45.3149 52.3181 41.7157 51.9582 36.3171C51.7291 32.7834 52.2199 29.3478 52.9397 25.945C54.5757 18.0924 56.2117 10.2398 57.8476 2.38713C57.9785 1.96178 58.0767 1.60187 58.1748 1.1438Z" fill="#C10F00"/>
<path d="M189.739 46.7218C183.719 46.7218 177.797 46.7218 171.842 46.7218C171.613 44.4315 171.384 42.2066 171.155 39.9489C166.967 39.9489 162.844 39.9489 158.623 39.9489C157.74 42.1738 156.856 44.3988 155.973 46.7218C150.182 46.7218 144.358 46.7218 138.468 46.7218C138.664 46.3292 138.795 46.002 138.959 45.6748C146.583 31.1474 154.239 16.6201 161.862 2.05996C162.222 1.37286 162.615 1.07838 163.433 1.07838C170.369 1.1111 177.306 1.11111 184.275 1.11111C184.602 1.11111 184.93 1.11111 185.388 1.11111C186.827 16.3256 188.3 31.4746 189.739 46.7218ZM163.433 28.3336C165.363 28.5299 170.304 28.4645 171.089 28.2681C171.286 26.4359 171.22 12.4974 170.958 11.614C168.439 17.209 165.952 22.7386 163.433 28.3336Z" fill="#C10F00"/>
<path d="M125.838 30.2313C131.466 30.2313 137.028 30.2313 142.591 30.2313C142.558 30.4276 142.591 30.5912 142.525 30.7221C141.249 34.6157 139.417 38.2475 136.57 41.2577C133.102 44.955 128.75 46.9836 123.81 47.7688C119.916 48.3905 115.99 48.3905 112.096 47.6052C110.133 47.1799 108.268 46.4273 106.567 45.3476C103.033 43.0572 101.037 39.7853 100.219 35.6954C99.0086 29.7732 99.6629 23.9819 101.855 18.3542C103.851 13.2827 106.73 8.86556 111.082 5.49547C115.499 2.02722 120.571 0.227659 126.198 0.0313429C129.568 -0.0995343 132.873 0.162228 136.112 1.14381C136.996 1.40556 137.912 1.76547 138.73 2.1581C141.675 3.56503 143.605 5.85539 144.554 8.99644C145.47 12.0393 145.47 15.1477 145.045 18.3214C139.679 18.3214 134.345 18.3214 128.914 18.3214C128.947 17.9615 129.012 17.6016 128.979 17.2744C128.947 16.4237 128.979 15.5076 128.75 14.6896C128.129 12.3992 126.166 11.5813 124.072 12.7592C122.403 13.6753 121.192 15.0822 120.44 16.8164C119.229 19.5321 118.378 22.3459 117.888 25.2252C117.56 27.1229 117.364 29.0534 117.266 30.9511C117.201 31.8672 117.43 32.8488 117.659 33.7322C117.986 35.041 118.738 36.0553 120.145 36.3171C121.618 36.5788 122.926 36.1535 123.843 34.9756C124.366 34.2885 124.693 33.4705 125.02 32.6852C125.38 31.9327 125.577 31.1147 125.838 30.2313Z" fill="#C10F00"/>
<path d="M231.031 13.1845C227.203 13.1845 223.407 13.1845 219.547 13.1845C217.289 24.3745 215.031 35.4991 212.806 46.6236C211.988 46.8527 197.134 46.9181 195.563 46.6891C197.788 35.5645 200.046 24.4727 202.304 13.2172C198.541 13.2172 194.909 13.2172 191.146 13.2172C192.062 9.1273 192.946 5.16826 193.829 1.1765C207.146 1.1765 220.397 1.1765 233.747 1.1765C232.831 5.16826 231.947 9.09458 231.031 13.1845Z" fill="#C10F00"/>
<path d="M244.577 46.7218C238.949 46.7218 233.354 46.7218 227.661 46.7218C230.802 31.5073 233.943 16.391 237.084 1.1765C242.712 1.1765 248.274 1.1765 254 1.1765C250.859 16.3583 247.718 31.5073 244.577 46.7218Z" fill="#C10F00"/>
</svg>
