<svg width="15" height="26" viewBox="0 0 15 26" fill="none" xmlns="http://www.w3.org/2000/svg">
<path d="M14.8507 12.4219L2.2588 0.140579C2.06485 -0.0482977 1.75521 -0.0468486 1.56368 0.144926L0.144931 1.56367C0.0512176 1.65715 -0.000952925 1.78443 1.31828e-05 1.91679C0.000979291 2.04939 0.0548405 2.17571 0.149762 2.26798L10.9573 12.776L0.150003 23.284C0.0550821 23.3763 0.00122082 23.5026 0.000254713 23.6352C-0.000711395 23.7675 0.0514591 23.8948 0.145173 23.9883L1.56392 25.407C1.66029 25.5037 1.78709 25.552 1.91366 25.552C2.03829 25.552 2.16292 25.5051 2.25904 25.4114L14.8507 13.1301C14.9464 13.0371 15 12.9093 15 12.776C15 12.6427 14.9464 12.5149 14.8507 12.4219Z" fill="#CCA33B"/>
</svg>
